<?xml version="1.0" standalone="no"?>
<!DOCTYPE svg PUBLIC "-//W3C//DTD SVG 20010904//EN"
 "http://www.w3.org/TR/2001/REC-SVG-20010904/DTD/svg10.dtd">
<svg version="1.0" xmlns="http://www.w3.org/2000/svg"
 width="286.000000pt" height="52.000000pt" viewBox="0 0 286.000000 52.000000"
 preserveAspectRatio="xMidYMid meet">

<g transform="translate(0.000000,52.000000) scale(0.100000,-0.100000)"
fill="#000000" stroke="none">
<path d="M113 510 c-23 -3 -48 -12 -57 -19 -52 -44 -53 -418 0 -462 8 -6 33
-15 57 -20 59 -10 70 1 61 70 -8 64 -1 62 41 -17 44 -84 64 -82 110 7 19 39
37 71 40 71 3 0 2 -27 -2 -61 -7 -70 1 -80 56 -72 57 9 78 27 86 75 12 73 24
79 25 12 0 -65 17 -94 56 -94 30 0 42 13 58 55 10 28 15 33 15 18 1 -12 13
-31 27 -42 22 -18 41 -21 111 -21 94 0 116 8 137 48 14 25 15 26 16 5 0 -30
41 -55 82 -51 l33 3 3 122 3 123 63 -3 64 -2 4 -90 c8 -140 25 -155 174 -155
158 0 180 27 172 213 -3 90 -6 99 -31 125 -27 26 -31 27 -141 27 -124 0 -138
-5 -162 -60 -11 -25 -13 -26 -14 -9 0 46 -31 66 -106 71 -82 6 -130 -12 -140
-52 l-6 -25 -17 32 c-18 37 -41 45 -132 47 -72 1 -116 -14 -134 -48 -13 -24
-14 -25 -15 -4 0 12 -4 25 -10 28 -6 4 -5 13 2 25 9 14 9 28 -1 59 -14 49 -47
63 -87 36 -24 -15 -26 -22 -22 -66 7 -73 -8 -69 -22 7 -14 73 -31 91 -90 94
-54 3 -57 2 -65 -27 -9 -38 -76 -183 -85 -183 -8 0 -90 170 -90 186 0 21 -25
30 -67 24z m93 -122 c29 -62 56 -114 61 -115 11 -4 103 188 103 213 0 14 8 16
47 10 26 -3 51 -10 56 -15 47 -47 46 -396 -1 -443 -6 -6 -30 -13 -55 -15 l-45
-5 5 88 c5 102 4 101 -58 -19 -22 -44 -45 -77 -52 -75 -7 2 -32 43 -57 91 -25
48 -48 87 -51 87 -4 0 -4 -38 -1 -85 l5 -85 -29 0 c-55 0 -78 21 -91 80 -23
111 -10 354 20 378 13 11 42 19 72 21 16 1 30 -21 71 -111z m418 66 c3 -9 6
-27 6 -40 0 -22 -4 -24 -45 -24 -39 0 -45 3 -45 21 0 36 19 59 49 59 17 0 31
-6 35 -16z m282 -108 c7 -6 15 -26 19 -43 l7 -33 -87 0 -86 0 3 -77 3 -78 80
0 80 0 -2 -29 c-4 -51 -23 -61 -124 -61 -82 0 -93 2 -109 22 -35 43 -38 242
-4 288 23 31 191 40 220 11z m260 0 c7 -6 15 -26 19 -43 l7 -33 -71 0 -71 0 0
-126 0 -126 -32 6 c-17 3 -37 11 -43 16 -28 23 -28 258 -1 296 7 9 28 19 46
24 43 10 131 2 146 -14z m341 -11 c35 -40 44 -217 13 -274 -14 -27 -63 -41
-145 -41 -91 0 -130 13 -143 48 -28 72 -21 237 11 269 22 22 88 32 172 26 58
-4 74 -9 92 -28z m-877 10 c10 -12 12 -49 7 -153 -3 -75 -9 -145 -12 -154 -10
-25 -61 -24 -75 1 -15 29 -13 308 3 314 25 11 65 6 77 -8z m310 -152 l0 -63
-80 0 -80 0 0 65 0 66 80 -3 80 -3 0 -62z"/>
<path d="M1314 256 c-3 -7 -4 -40 -2 -72 3 -58 3 -58 38 -66 19 -4 47 -5 63
-2 27 5 27 7 27 80 l0 74 -60 0 c-42 0 -62 -4 -66 -14z m109 -28 c2 -18 2 -48
-1 -65 -4 -31 -7 -33 -48 -33 l-44 0 0 65 0 65 44 0 c42 0 44 -2 49 -32z"/>
<path d="M1632 501 c-19 -5 -38 -13 -42 -17 -18 -18 -31 -217 -20 -319 6 -55
13 -108 16 -117 7 -23 59 -33 165 -33 126 1 148 20 164 153 5 47 3 55 -18 74
l-24 21 24 21 c22 20 23 24 14 95 -8 58 -15 79 -35 100 -23 23 -34 25 -118 28
-51 1 -108 -2 -126 -6z m156 -149 l3 -33 -48 3 c-37 2 -49 7 -51 21 -7 37 6
48 50 45 41 -3 43 -5 46 -36z m2 -182 c0 -23 -5 -31 -24 -36 -48 -12 -71 -2
-74 34 l-3 32 50 0 c50 0 51 -1 51 -30z"/>
<path d="M2089 471 c-22 -18 -23 -22 -23 -207 0 -104 4 -199 8 -211 7 -23 64
-42 85 -28 7 4 11 52 11 126 l0 119 41 0 40 0 -3 43 c-3 41 -4 42 -40 45 -36
3 -38 5 -38 36 0 67 -11 96 -35 96 -13 0 -33 -8 -46 -19z"/>
<path d="M1950 461 c-5 -11 -10 -31 -10 -45 0 -25 3 -26 51 -26 l52 0 -7 32
c-3 17 -11 37 -17 45 -17 19 -57 16 -69 -6z"/>
<path d="M1958 359 c-16 -9 -18 -27 -18 -155 0 -81 5 -154 10 -165 7 -12 21
-19 41 -19 42 0 49 27 49 191 l0 139 -26 10 c-31 12 -34 12 -56 -1z"/>
<path d="M2309 351 c-23 -18 -24 -27 -27 -143 -3 -112 -2 -126 17 -150 25 -31
97 -43 179 -29 63 10 70 16 74 61 l3 34 -87 -3 c-75 -2 -88 0 -88 13 0 13 13
16 71 16 102 0 109 6 109 91 0 65 -2 73 -29 100 -28 27 -34 29 -114 29 -69 0
-89 -4 -108 -19z m151 -102 c0 -15 -7 -19 -40 -19 -33 0 -40 3 -40 19 0 21 21
29 58 23 13 -3 22 -12 22 -23z"/>
<path d="M2615 345 c-22 -21 -25 -33 -25 -99 0 -89 7 -96 94 -96 49 0 56 -2
56 -20 0 -18 -7 -20 -76 -20 l-76 0 7 -33 c4 -17 12 -35 18 -39 33 -21 172
-20 206 2 7 4 18 41 24 83 14 99 8 107 -84 107 -62 0 -69 2 -69 20 0 18 7 20
75 20 l75 0 0 30 c0 53 -29 70 -120 70 -73 0 -83 -3 -105 -25z"/>
</g>
</svg>
